<?xml version="1.0" encoding="UTF-8" standalone="no"?>
<svg
   version="1.1"
   viewBox="-5.0 -20.0 110.0 135.0"
   id="svg8"
   sodipodi:docname="key.svg"
   xmlns:inkscape="http://www.inkscape.org/namespaces/inkscape"
   xmlns:sodipodi="http://sodipodi.sourceforge.net/DTD/sodipodi-0.dtd"
   xmlns="http://www.w3.org/2000/svg"
   xmlns:svg="http://www.w3.org/2000/svg">
  <defs
     id="defs12" />
  <sodipodi:namedview
     id="namedview10"
     pagecolor="#ffffff"
     bordercolor="#000000"
     borderopacity="0.25"
     inkscape:showpageshadow="2"
     inkscape:pageopacity="0.0"
     inkscape:pagecheckerboard="0"
     inkscape:deskcolor="#d1d1d1" />
  <path
     d="m70.523 13.77c0.085937-0.69531 0.64844-1.2695 1.3516-1.2695s1.2656 0.57422 1.3516 1.2695c0.57422 4.6094 4.2266 8.2617 8.8359 8.8359 0.69922 0.089843 1.2695 0.64844 1.2695 1.3516s-0.57031 1.2656-1.2695 1.3516c-4.6094 0.57422-8.2617 4.2266-8.8359 8.8359-0.085937 0.69922-0.64844 1.2734-1.3516 1.2734s-1.2656-0.57422-1.3516-1.2734c-0.57422-4.6094-4.2266-8.2617-8.8359-8.8359-0.69922-0.085938-1.2695-0.64844-1.2695-1.3516s0.57031-1.2617 1.2695-1.3516c4.6094-0.57422 8.2617-4.2266 8.8359-8.8359z"
     id="path2" />
  <path
     d="m79.098 40.508c0.078125-0.50781 0.48438-0.92578 0.99609-0.92578s0.91797 0.41797 0.99609 0.92188c0.43359 2.7188 2.7422 4.8633 5.4883 5.2617 0.50391 0.074219 0.92188 0.48047 0.92188 0.99219 0 0.51172-0.41797 0.92188-0.92188 0.99219-2.8438 0.40625-5.0898 2.6523-5.4961 5.4922-0.070312 0.50781-0.47656 0.92578-0.98828 0.92578s-0.92188-0.41797-0.99219-0.92578c-0.40234-2.7461-2.5469-5.0508-5.2617-5.4844-0.50781-0.082031-0.92188-0.48828-0.92188-1 0-0.51172 0.41406-0.91797 0.92188-0.99219 2.7109-0.40234 4.8594-2.5469 5.2578-5.2578z"
     id="path4" />
  <path
     d="m53.852 51.77c-0.69922-0.69922-0.80078-1.7891-0.32031-2.6562 1.7305-3.1328 2.7188-6.7383 2.7188-10.57 0-12.082-9.793-21.875-21.875-21.875s-21.875 9.793-21.875 21.875c0 12.078 9.793 21.875 21.875 21.875 3.8477 0 7.4688-0.99609 10.609-2.7422 0.85156-0.47266 1.9258-0.38281 2.6289 0.29688l12.32 11.91c0.83984 0.80859 0.85156 2.1445 0.027344 2.9688l-3.3203 3.3203c-0.79688 0.79688-0.8125 2.0859-0.039063 2.9062l6.5078 6.8672c0.80859 0.85156 2.1562 0.86328 3 0.050782 3.6445-3.5117 5.1406-4.0859 8.3164-1.4727 1.832 1.5039 4.5156 1.5156 6.1172-0.23047l0.09375-0.10156c1.5078-1.6445 1.4531-4.1836-0.125-5.7617zm-19.477 0.3125c7.4805 0 13.543-6.0625 13.543-13.539 0-7.4805-6.0625-13.543-13.543-13.543s-13.543 6.0625-13.543 13.543c0 7.4766 6.0625 13.539 13.543 13.539z"
     fill-rule="evenodd"
     id="path6" />
</svg>
